<svg version="1.1" id="Capa_1" xmlns="http://www.w3.org/2000/svg" xmlns:xlink="http://www.w3.org/1999/xlink" x="0px" y="0px" width="595.28px" height="841.89px" viewBox="0 0 595.28 841.89" enable-background="new 0 0 595.28 841.89" xml:space="preserve">
<g>
	<g>
		<g>
			<path fill="#1B1B47" d="M297.64,321.732c-54.718,0-99.213,44.508-99.213,99.213s44.496,99.213,99.213,99.213
				s99.213-44.508,99.213-99.213S352.358,321.732,297.64,321.732z M297.64,495.355c-41.032,0-74.41-33.378-74.41-74.41
				s33.378-74.41,74.41-74.41s74.41,33.378,74.41,74.41S338.672,495.355,297.64,495.355z" id="id_101"></path>
			<path fill="#1B1B47" d="M582.878,408.543h-62.636c-6.264-113.174-97.016-203.936-210.2-210.2v-62.636
				c0-6.855-5.547-12.402-12.402-12.402s-12.402,5.547-12.402,12.402v62.636c-113.185,6.264-203.936,97.026-210.2,210.2H12.402
				C5.547,408.543,0,414.09,0,420.945s5.547,12.402,12.402,12.402h62.636c6.264,113.174,97.016,203.936,210.2,210.2v62.637
				c0,6.855,5.547,12.402,12.402,12.402s12.402-5.547,12.402-12.402v-62.637c113.185-6.264,203.936-97.026,210.2-210.2h62.637
				c6.855,0,12.402-5.547,12.402-12.402S589.733,408.543,582.878,408.543z M297.64,619.372
				c-109.411,0-198.427-89.016-198.427-198.427s89.016-198.427,198.427-198.427s198.427,89.016,198.427,198.427
				S407.051,619.372,297.64,619.372z" id="id_102"></path>
		</g>
	</g>
</g>
</svg>